<?xml version="1.0" encoding="UTF-8"?>
<svg xmlns="http://www.w3.org/2000/svg" viewBox="0 0 420 120" width="420" height="120">
  <rect x="10" y="10" width="100" height="100" rx="22" fill="#5a6641"/>
  <g transform="translate(60 65)">
    <path d="M0,45 C-22,30 -50,-5 -45,-32 C-38,-48 -20,-50 -5,-37 L0,-30 L5,-37 C20,-50 38,-48 45,-32 C50,-5 22,30 0,45Z" fill="#ffffff" opacity="0.98"/>
    <path d="M0,-22 Q-4,7 0,28" fill="none" stroke="#ffffff" stroke-width="5" stroke-linecap="round"/>
    <path d="M0,0 Q-12,-7 -16,-18" fill="none" stroke="#ffffff" stroke-width="3.5" stroke-linecap="round" opacity="0.85"/>
    <path d="M0,0 Q12,-7 16,-18" fill="none" stroke="#ffffff" stroke-width="3.5" stroke-linecap="round" opacity="0.85"/>
  </g>
  <text x="135" y="68" fill="#f7f8f3" font-family="system-ui,sans-serif" font-size="42" font-weight="700" letter-spacing="-0.02em">OlieCare</text>
  <text x="135" y="88" fill="#c4cda9" font-family="system-ui,sans-serif" font-size="11" font-weight="500" letter-spacing="1px">ROTINA - SAUDE - CRESCIMENTO</text>
</svg>
