<svg xmlns="http://www.w3.org/2000/svg" viewBox="0 0 100 100">
  <rect width="100" height="100" rx="20" fill="#738251"/>
  <path d="M50 25 C35 25 25 35 25 50 C25 65 35 75 50 75 C65 75 75 65 75 50 C75 35 65 25 50 25 Z M50 70 C37.5 70 30 62.5 30 50 C30 37.5 37.5 30 50 30 C62.5 30 70 37.5 70 50 C70 62.5 62.5 70 50 70 Z" fill="white" opacity="0.9"/>
  <path d="M45 45 C42 45 40 47 40 50 C40 53 42 55 45 55 L55 55 C58 55 60 53 60 50 C60 47 58 45 55 45 Z M50 38 C48 38 47 39 47 41 L47 45 L53 45 L53 41 C53 39 52 38 50 38 Z M42 52 L40 58 C39 61 41 63 43 62 L47 60 L47 55 Z M58 52 L60 58 C61 61 59 63 57 62 L53 60 L53 55 Z" fill="white"/>
</svg>
